<svg xmlns="http://www.w3.org/2000/svg" viewBox="0 0 1920 1080" fill="none">
  <defs>
    <linearGradient id="sky" x1="0" y1="0" x2="0" y2="1">
      <stop offset="0" stop-color="#faf6ef"/>
      <stop offset="0.5" stop-color="#f5ece0"/>
      <stop offset="1" stop-color="#eae0d0"/>
    </linearGradient>
    <radialGradient id="warmGlow" cx="0" cy="0" r="1" gradientUnits="userSpaceOnUse" gradientTransform="translate(1520 160) rotate(25) scale(480 320)">
      <stop stop-color="#f8d79f" stop-opacity="0.9"/>
      <stop offset="1" stop-color="#f8d79f" stop-opacity="0"/>
    </radialGradient>
    <radialGradient id="redGlow" cx="0" cy="0" r="1" gradientUnits="userSpaceOnUse" gradientTransform="translate(200 900) rotate(-12) scale(600 280)">
      <stop stop-color="#c4443a" stop-opacity="0.18"/>
      <stop offset="1" stop-color="#c4443a" stop-opacity="0"/>
    </radialGradient>
    <linearGradient id="goldLine" x1="0" y1="0" x2="1" y2="0">
      <stop offset="0" stop-color="#c9a45e" stop-opacity="0"/>
      <stop offset="0.5" stop-color="#dfc07e" stop-opacity="0.7"/>
      <stop offset="1" stop-color="#c9a45e" stop-opacity="0"/>
    </linearGradient>
  </defs>

  <rect width="1920" height="1080" fill="url(#sky)"/>
  <rect width="1920" height="1080" fill="url(#warmGlow)"/>
  <rect width="1920" height="1080" fill="url(#redGlow)"/>

  <!-- ???? -->
  <g opacity="0.2">
    <path d="M0 96H1920" stroke="url(#goldLine)" stroke-width="2"/>
    <path d="M0 976H1920" stroke="url(#goldLine)" stroke-width="2"/>
  </g>

  <!-- ???? ?? -->
  <g opacity="0.1" stroke="#b8873e" stroke-width="2">
    <rect x="60" y="110" width="240" height="240" rx="6"/>
    <path d="M120 110V350M180 110V350M240 110V350"/>
    <path d="M60 170H300M60 230H300M60 290H300"/>
  </g>

  <!-- ???? ?? -->
  <g opacity="0.1" stroke="#b8873e" stroke-width="2">
    <rect x="1620" y="700" width="240" height="240" rx="6"/>
    <path d="M1680 700V940M1740 700V940M1800 700V940"/>
    <path d="M1620 760H1860M1620 820H1860M1620 880H1860"/>
  </g>

  <!-- ??? -->
  <g opacity="0.16" stroke="#c4977a" stroke-width="6" stroke-linecap="round" fill="none">
    <path d="M380 190C414 158 454 158 488 188C516 214 550 214 578 192"/>
    <path d="M1340 180C1374 148 1414 148 1448 178C1476 204 1510 204 1538 182"/>
    <path d="M160 880C194 848 234 848 268 878C296 904 330 904 358 882"/>
    <path d="M1560 900C1594 868 1634 868 1668 898C1696 924 1730 924 1758 902"/>
  </g>

  <!-- ???? -->
  <path d="M0 730C240 680 440 760 720 726C980 696 1170 620 1440 650C1660 674 1810 756 1920 736V1080H0V730Z" fill="#d4c5a8" fill-opacity="0.3"/>
  <path d="M0 810C300 766 560 840 860 816C1120 794 1320 732 1600 758C1740 772 1840 802 1920 822V1080H0V810Z" fill="#c4b898" fill-opacity="0.35"/>
  <path d="M0 880C270 852 530 900 820 880C1080 862 1290 820 1580 840C1720 850 1840 870 1920 886V1080H0V880Z" fill="#b4a888" fill-opacity="0.3"/>

  <!-- ???????? -->
  <g opacity="0.12">
    <circle cx="1680" cy="520" r="120" fill="#d4a45e"/>
    <circle cx="1680" cy="520" r="90" fill="#ecd4a3"/>
    <circle cx="1680" cy="520" r="60" fill="#c4935a"/>
    <rect x="1740" y="390" width="8" height="100" rx="4" transform="rotate(28 1740 390)" fill="#c49a5a"/>
    <rect x="1762" y="378" width="8" height="112" rx="4" transform="rotate(28 1762 378)" fill="#b4884a"/>
  </g>

  <!-- ???????? -->
  <g opacity="0.14">
    <rect x="100" y="520" width="6" height="40" rx="3" fill="#c4443a"/>
    <ellipse cx="103" cy="580" rx="22" ry="34" fill="#c4443a"/>
    <ellipse cx="103" cy="580" rx="14" ry="26" fill="#d45c4a"/>
    <rect x="100" y="612" width="6" height="18" rx="3" fill="#c4443a"/>
  </g>
  <g opacity="0.1">
    <rect x="160" y="540" width="5" height="36" rx="2.5" fill="#c4443a"/>
    <ellipse cx="162.5" cy="594" rx="18" ry="28" fill="#c4443a"/>
    <ellipse cx="162.5" cy="594" rx="11" ry="20" fill="#d45c4a"/>
    <rect x="160" y="620" width="5" height="14" rx="2.5" fill="#c4443a"/>
  </g>

  <!-- ?? -->
  <g opacity="0.1">
    <rect x="1780" y="140" width="52" height="52" rx="8" fill="#b83a30"/>
    <rect x="1780" y="140" width="52" height="52" rx="8" stroke="#dfc08a" stroke-width="1.5"/>
  </g>
</svg>
